# Blender v2.93.5 OBJ File: ''
# www.blender.org
mtllib corridor_s.mtl
o Cube.001_Cube.002
v -10.842038 3.041645 -3.111613
v -10.842038 -3.041645 -3.111613
v -10.842038 3.041645 3.111613
v -10.842038 -3.041645 3.111613
v 10.842038 3.041645 -3.111613
v 10.842038 -3.041645 -3.111613
v 10.842038 3.041645 3.111613
v 10.842038 -3.041645 3.111613
vt 0.625000 0.500000
vt 0.875000 0.500000
vt 0.875000 0.750000
vt 0.625000 0.750000
vt 0.375000 0.750000
vt 0.625000 1.000000
vt 0.375000 1.000000
vt 0.375000 0.000000
vt 0.625000 0.000000
vt 0.625000 0.250000
vt 0.375000 0.250000
vt 0.125000 0.500000
vt 0.375000 0.500000
vt 0.125000 0.750000
vn 0.0000 -1.0000 0.0000
vn 0.0000 0.0000 -1.0000
vn -1.0000 0.0000 0.0000
vn 0.0000 1.0000 0.0000
vn 0.0000 0.0000 1.0000
usemtl Material.001
s off
f 1/1/1 5/2/1 7/3/1 3/4/1
f 4/5/2 3/4/2 7/6/2 8/7/2
f 8/8/3 7/9/3 5/10/3 6/11/3
f 6/12/4 2/13/4 4/5/4 8/14/4
f 6/11/5 5/10/5 1/1/5 2/13/5
o Cube.002_Cube.003
v 10.842038 3.041645 -3.111613
v 10.842038 -3.041645 -3.111613
v 10.842038 3.041645 3.111613
v 10.842038 -3.041645 3.111613
vt 0.375000 0.000000
vt 0.625000 0.000000
vt 0.625000 0.250000
vt 0.375000 0.250000
vn -1.0000 0.0000 0.0000
usemtl Material
s off
f 12/15/6 11/16/6 9/17/6 10/18/6
o Cube.003_Cube.004
v -10.842038 3.041645 3.111613
v -10.842038 -3.041645 3.111613
v 10.842038 3.041645 3.111613
v 10.842038 -3.041645 3.111613
vt 0.375000 0.750000
vt 0.625000 0.750000
vt 0.625000 1.000000
vt 0.375000 1.000000
vn 0.0000 0.0000 -1.0000
usemtl Material
s off
f 14/19/7 13/20/7 15/21/7 16/22/7
o Cube.004_Cube.005
v -10.842038 3.041645 -3.111613
v -10.842038 -3.041645 -3.111613
v 10.842038 3.041645 -3.111613
v 10.842038 -3.041645 -3.111613
vt 0.375000 0.250000
vt 0.625000 0.250000
vt 0.625000 0.500000
vt 0.375000 0.500000
vn 0.0000 0.0000 1.0000
usemtl Material
s off
f 20/23/8 19/24/8 17/25/8 18/26/8
o Cube.005_Cube.006
v -10.842038 3.041645 -3.111613
v -10.842038 3.041645 3.111613
v 10.842038 3.041645 -3.111613
v 10.842038 3.041645 3.111613
vt 0.625000 0.500000
vt 0.875000 0.500000
vt 0.875000 0.750000
vt 0.625000 0.750000
vn 0.0000 -1.0000 0.0000
usemtl Material
s off
f 21/27/9 23/28/9 24/29/9 22/30/9
