# Blender v2.93.5 OBJ File: ''
# www.blender.org
mtllib corridor.mtl
o Cube
v -10.842038 -0.020879 -3.111613
v -10.842038 -6.104169 -3.111613
v -10.842038 -0.020879 3.111613
v -10.842038 -6.104169 3.111613
v 10.842038 -0.020879 -3.111613
v 10.842038 -6.104169 -3.111613
v 10.842038 -0.020879 3.111613
v 10.842038 -6.104169 3.111613
vt 0.625000 0.500000
vt 0.875000 0.500000
vt 0.875000 0.750000
vt 0.625000 0.750000
vt 0.375000 0.750000
vt 0.625000 1.000000
vt 0.375000 1.000000
vt 0.125000 0.500000
vt 0.375000 0.500000
vt 0.125000 0.750000
vt 0.375000 0.250000
vt 0.625000 0.250000
vn 0.0000 -1.0000 0.0000
vn 0.0000 0.0000 -1.0000
vn 0.0000 1.0000 0.0000
vn 1.0000 0.0000 0.0000
vn 0.0000 0.0000 1.0000
usemtl Material
s off
f 1/1/1 5/2/1 7/3/1 3/4/1
f 4/5/2 3/4/2 7/6/2 8/7/2
f 6/8/3 2/9/3 4/5/3 8/10/3
f 2/9/4 1/1/4 3/4/4 4/5/4
f 6/11/5 5/12/5 1/1/5 2/9/5
